<svg xmlns="http://www.w3.org/2000/svg" width="304.006" height="290.825" viewBox="0 0 304.006 290.825">
  <path id="mountains" d="M188.2,69.3H173.4L91.9,214.471l-22.61-38.954H54.871L0,273.163v17.663H304.006V269.142Zm-7.187,34.461,39.3,67.828-11.034,19.521-23.857-35.7L159.568,207.7,140,176.812ZM29.807,268.1,62.3,210.283l16.24,27.979L61.786,268.1Zm58.937,0,38.206-68.051,35.2,55.555,26.391-53.362L211,235.848l22.99-40.674L276.249,268.1ZM0,84.236A42.932,42.932,0,0,1,12.106,54.43,45.8,45.8,0,0,1,32.735,42.082a55.884,55.884,0,0,1,17.558-27.5,61.463,61.463,0,0,1,81.453,1.726,54.55,54.55,0,0,1,16.98,33.97,41.049,41.049,0,0,1,7.339,2.252L144.695,72.749a16.7,16.7,0,0,0-4.457-.611H125.284V56.122c0-18.73-15.476-33.4-35.234-33.4-18.281,0-33.459,12.984-35.306,30.2l-1.009,9.41-9.856.755C32.592,63.953,23.75,73.242,23.75,84.236c0,11.809,9.894,21.415,22.056,21.415h80.381l-12.78,22.721h-67.6C20.548,128.372,0,108.573,0,84.236Z"/>
</svg>
