<svg xmlns="http://www.w3.org/2000/svg" width="512.433" height="512.401" viewBox="0 0 512.433 512.401">
  <g id="plug" transform="translate(0 -0.016)">
    <g id="Group_9" data-name="Group 9">
      <g id="Group_8" data-name="Group 8">
        <path id="Path_19" data-name="Path 19" d="M424.091,324.128,188.293,89.419a10.667,10.667,0,0,0-15.061.021l-42.091,42.091a10.674,10.674,0,0,0,0,15.083l13.781,13.8L78.554,226.785c-42.9,42.9-45.035,110.763-7.467,156.8L3.12,451.552a10.674,10.674,0,0,0,0,15.083L45.787,509.3a10.712,10.712,0,0,0,15.1,0l67.968-67.968c21.5,17.536,47.531,26.859,73.835,26.859a116.985,116.985,0,0,0,82.965-34.3l66.368-66.368L365.808,381.3a10.683,10.683,0,0,0,14.976.107l43.221-42.091a10.665,10.665,0,0,0,.086-15.19Z"/>
      </g>
    </g>
    <g id="Group_11" data-name="Group 11">
      <g id="Group_10" data-name="Group 10">
        <path id="Path_20" data-name="Path 20" d="M372.379,11.936a40.778,40.778,0,0,0-57.621,0L227.931,98.763l57.877,57.621,86.677-86.7a40.739,40.739,0,0,0-.106-57.749Z"/>
      </g>
    </g>
    <g id="Group_13" data-name="Group 13">
      <g id="Group_12" data-name="Group 12">
        <path id="Path_21" data-name="Path 21" d="M500.357,139.936a40.778,40.778,0,0,0-57.621,0l-86.528,86.528,57.9,57.621,86.379-86.379a40.737,40.737,0,0,0-.129-57.77Z"/>
      </g>
    </g>
  </g>
</svg>
