<svg xmlns="http://www.w3.org/2000/svg" width="470" height="510" viewBox="0 0 470 510">
  <g id="water-tap" transform="translate(-20)">
    <path id="Path_31" data-name="Path 31" d="M459.57,374.835C445.485,355.743,420,328.193,420,328.193s-25.485,27.55-39.57,46.643C359.954,402.589,350,423.9,350,440a70,70,0,0,0,140,0C490,423.9,480.046,402.589,459.57,374.835Z"/>
    <g id="Group_24" data-name="Group 24">
      <path id="Path_32" data-name="Path 32" d="M334.525,149.525l-5.062.053A24.2,24.2,0,0,1,305,125.374V75H260V45h75V15H260V0H230V15H155V45h75V75H185v46.664A28.367,28.367,0,0,1,156.664,150H118.72A73.623,73.623,0,0,1,120,163.6v77.8a73.71,73.71,0,0,1-1.28,13.6H335a30.034,30.034,0,0,1,30,30v15H470V285c0-74.7-60.774-135.475-135.475-135.475Z"/>
      <path id="Path_33" data-name="Path 33" d="M46.4,120H20V285H46.4A43.649,43.649,0,0,0,90,241.4V163.6A43.649,43.649,0,0,0,46.4,120Z"/>
    </g>
  </g>
</svg>
