<svg xmlns="http://www.w3.org/2000/svg" width="342.149" height="511.824" viewBox="0 0 342.149 511.824">
  <g id="wc" transform="translate(-84.837)">
    <path id="Path_34" data-name="Path 34" d="M264.139,431.541H246.377a172.907,172.907,0,0,1-61.989-11.487l-11.43,74.495a15,15,0,0,0,14.827,17.275H322.731a15,15,0,0,0,14.826-17.275l-11.43-74.495A172.876,172.876,0,0,1,264.139,431.541Z"/>
    <path id="Path_35" data-name="Path 35" d="M397.414,305.948H113.1c-.689,0-1.371-.028-2.053-.052a143.568,143.568,0,0,0,135.328,95.646h17.761A143.567,143.567,0,0,0,399.467,305.9c-.683.023-1.365.052-2.053.052Z"/>
    <path id="Path_36" data-name="Path 36" d="M411.987,64.789H390.248A60.938,60.938,0,0,0,329.437,0H181.079a60.944,60.944,0,0,0-60.424,68.892l15.852,120.524h237.5L386.454,94.79h25.532a15,15,0,0,0,0-30Z"/>
    <path id="Path_37" data-name="Path 37" d="M397.413,275.948H113.1a28.266,28.266,0,0,1,0-56.532h284.31a28.266,28.266,0,0,1,0,56.532Z"/>
  </g>
</svg>
