<svg xmlns="http://www.w3.org/2000/svg" xmlns:xlink="http://www.w3.org/1999/xlink" width="653.787" height="118.787" viewBox="0 0 653.787 118.787">
  <defs>
    <filter id="VanBuild.com" x="97.787" y="17.787" width="556" height="101" filterUnits="userSpaceOnUse">
      <feOffset dy="3" input="SourceAlpha"/>
      <feGaussianBlur stdDeviation="3" result="blur"/>
      <feFlood flood-opacity="0.161"/>
      <feComposite operator="in" in2="blur"/>
      <feComposite in="SourceGraphic"/>
    </filter>
  </defs>
  <g id="Logo" transform="translate(-591.213 -301.213)">
    <g transform="matrix(1, 0, 0, 1, 591.21, 301.21)" filter="url(#VanBuild.com)">
      <text id="VanBuild.com-2" data-name="VanBuild.com" transform="translate(106.79 23.79)" fill="#f67362" font-size="72" font-family="ArialRoundedMTBold, Arial Rounded MT"><tspan x="-243.809" y="68">VanBuild.com</tspan></text>
    </g>
    <g id="van" transform="translate(591.213 301.213)">
      <path id="Path_5" data-name="Path 5" d="M106.787,68.338a18.447,18.447,0,0,0-2.006-8.346L93.236,37.368a18.282,18.282,0,0,0-10.715-9.139V21.345c.993.122,2.043.272,3.126.458,7.307,1.252,12.772,3.508,15.8,6.526a3.128,3.128,0,0,0,4.413-4.435c-9.393-9.346-30.084-9.331-30.944-9.327H36.587A19.735,19.735,0,0,0,26.574,2.894a27.494,27.494,0,0,0-8.5-2.867,3.129,3.129,0,0,0-3.535,3.1V14.565H3.128a3.129,3.129,0,1,0,0,6.257H14.538v6.541A15.023,15.023,0,0,0,0,42.369V87.434a13.066,13.066,0,0,0,13.051,13.051h.074a9.337,9.337,0,0,0,17.66,0H76a9.337,9.337,0,0,0,17.66,0h.074a13.066,13.066,0,0,0,13.051-13.051ZM90.822,46.4l7.685,15.061H84.792V46.4ZM76.264,20.85v6.5H20.795V20.822ZM20.795,7.167A20.949,20.949,0,0,1,23.786,8.5a13.982,13.982,0,0,1,6.091,6.066H20.795Zm1.16,93.363a3.174,3.174,0,1,1,3.1-3.174A3.143,3.143,0,0,1,21.955,100.53Zm62.876,0a3.174,3.174,0,1,1,3.1-3.174A3.143,3.143,0,0,1,84.832,100.53Zm8.9-6.3h-.074a9.337,9.337,0,0,0-17.66,0H30.785a9.337,9.337,0,0,0-17.66,0h-.074a6.8,6.8,0,0,1-6.794-6.794V81.841H83.226a3.129,3.129,0,0,0,0-6.257H6.257V42.369A8.76,8.76,0,0,1,15,33.608H76.88a12.052,12.052,0,0,1,10.748,6.538H81.664a3.129,3.129,0,0,0-3.129,3.129V64.593a3.129,3.129,0,0,0,3.129,3.129h18.847c.011.205.019.411.019.617v7.246H95.692a3.129,3.129,0,1,0,0,6.257h4.837v5.592A6.8,6.8,0,0,1,93.735,94.228Z" transform="translate(0 0)" fill="#fa9039"/>
      <path id="Path_6" data-name="Path 6" d="M116.249,192.482H62.66a3.129,3.129,0,0,0-3.129,3.129v21.319a3.129,3.129,0,0,0,3.129,3.129h53.589a3.129,3.129,0,0,0,3.129-3.129V195.611A3.129,3.129,0,0,0,116.249,192.482Zm-21.58,6.257V213.8H84.241V198.739Zm-28.88,0H77.984V213.8H65.789ZM113.121,213.8H100.926V198.739h12.195Z" transform="translate(-47.116 -152.336)" fill="#fa9039"/>
    </g>
  </g>
</svg>
