<svg id="hot" xmlns="http://www.w3.org/2000/svg" width="512" height="512" viewBox="0 0 512 512">
  <path id="Path_10" data-name="Path 10" d="M160,344.44V64A64,64,0,0,0,32,64V344.44A95.128,95.128,0,0,0,0,416a96,96,0,0,0,192,0A95.128,95.128,0,0,0,160,344.44ZM56.068,418.36a40.022,40.022,0,0,1,21.216-37.694A5.033,5.033,0,0,0,80,376.239V176.449c0-8.618,6.626-16.03,15.235-16.431A16,16,0,0,1,112,176V376.242a5.012,5.012,0,0,0,2.7,4.415,39.994,39.994,0,1,1-58.63,37.7Z"/>
  <circle id="Ellipse_1" data-name="Ellipse 1" cx="80" cy="80" r="80" transform="translate(272 80)"/>
  <path id="Path_11" data-name="Path 11" d="M352,53a16,16,0,0,0,16-16V16a16,16,0,0,0-32,0V37A16,16,0,0,0,352,53Z"/>
  <path id="Path_12" data-name="Path 12" d="M352,267a16,16,0,0,0-16,16v21a16,16,0,0,0,32,0V283A16,16,0,0,0,352,267Z"/>
  <path id="Path_13" data-name="Path 13" d="M245,160a16,16,0,0,0-16-16H208a16,16,0,0,0,0,32h21A16,16,0,0,0,245,160Z"/>
  <path id="Path_14" data-name="Path 14" d="M496,144H475a16,16,0,0,0,0,32h21a16,16,0,0,0,0-32Z"/>
  <path id="Path_15" data-name="Path 15" d="M253.409,84.036a16,16,0,0,0,22.627-22.627L261.49,46.863A16,16,0,0,0,238.863,69.49Z"/>
  <path id="Path_16" data-name="Path 16" d="M450.591,235.964a16,16,0,1,0-22.627,22.627l14.546,14.546a15.947,15.947,0,0,0,11.313,4.687c14.126,0,21.421-17.206,11.313-27.313Z"/>
  <path id="Path_17" data-name="Path 17" d="M253.409,235.964,238.863,250.51a16,16,0,0,0,22.627,22.627l14.546-14.546a16,16,0,0,0-22.627-22.627Z"/>
  <path id="Path_18" data-name="Path 18" d="M439.277,88.723a15.945,15.945,0,0,0,11.313-4.687L465.136,69.49a16,16,0,0,0-22.627-22.627L427.963,61.409c-10.109,10.109-2.811,27.314,11.314,27.314Z"/>
</svg>
