<svg xmlns="http://www.w3.org/2000/svg" width="192.351" height="219.781" viewBox="0 0 192.351 219.781">
  <path id="snowflake" d="M202.314,154.591,179.991,141.7,199.336,130.3a7.5,7.5,0,0,0-7.619-12.921l-26.648,15.713-40.179-23.2L165.062,86.7l26.656,15.711a7.5,7.5,0,0,0,7.616-12.924l-19.348-11.4,22.328-12.891a7.5,7.5,0,0,0-7.5-12.99L172.491,65.088l-.2-22.461a7.5,7.5,0,0,0-15,.135l.279,30.941L117.391,96.9V50.51l26.937-15.224a7.5,7.5,0,1,0-7.381-13.059L117.391,33.28V7.5a7.5,7.5,0,0,0-15,0V33.28L82.835,22.228a7.5,7.5,0,0,0-7.381,13.059L102.39,50.511V96.9L62.213,73.7l.279-30.941a7.5,7.5,0,0,0-7.432-7.567h-.069a7.5,7.5,0,0,0-7.5,7.433l-.2,22.46L24.967,52.2a7.5,7.5,0,1,0-7.5,12.99L39.794,78.08l-19.351,11.4a7.5,7.5,0,1,0,7.617,12.924L54.719,86.7l40.173,23.194-40.18,23.2L28.06,117.374a7.5,7.5,0,1,0-7.619,12.92L39.789,141.7,17.466,154.59a7.5,7.5,0,1,0,7.5,12.99l22.323-12.889.2,22.462a7.5,7.5,0,0,0,7.5,7.433h.069a7.5,7.5,0,0,0,7.432-7.567l-.279-30.942,40.178-23.2V169.27L75.454,184.494a7.5,7.5,0,1,0,7.381,13.059L102.391,186.5v25.78a7.5,7.5,0,0,0,15,0V186.5l19.556,11.052a7.5,7.5,0,0,0,7.381-13.059L117.391,169.27V122.88l40.177,23.2-.286,30.941a7.5,7.5,0,0,0,7.43,7.569h.071a7.5,7.5,0,0,0,7.5-7.431l.208-22.465,22.326,12.89a7.5,7.5,0,1,0,7.5-12.99Z" transform="translate(-13.715)"/>
</svg>
