<svg id="sun" xmlns="http://www.w3.org/2000/svg" width="321.989" height="321.989" viewBox="0 0 321.989 321.989">
  <g id="Group_23" data-name="Group 23">
    <path id="Path_22" data-name="Path 22" d="M91.916,11.269a80.654,80.654,0,1,0,80.647,80.654A80.744,80.744,0,0,0,91.916,11.269Z" transform="translate(69.078 69.078)"/>
    <g id="Group_22" data-name="Group 22">
      <g id="Group_14" data-name="Group 14" transform="translate(145.259)">
        <path id="Path_23" data-name="Path 23" d="M36.109,56.64A15.733,15.733,0,0,1,20.373,40.912V15.736a15.736,15.736,0,0,1,31.472,0V40.912A15.738,15.738,0,0,1,36.109,56.64Z" transform="translate(-20.373)"/>
      </g>
      <g id="Group_15" data-name="Group 15" transform="translate(145.259 265.341)">
        <path id="Path_24" data-name="Path 24" d="M36.109,37.215A15.735,15.735,0,0,0,20.373,52.951V78.12a15.736,15.736,0,1,0,31.472,0V52.951A15.739,15.739,0,0,0,36.109,37.215Z" transform="translate(-20.373 -37.215)"/>
      </g>
      <g id="Group_16" data-name="Group 16" transform="translate(230.171 42.546)">
        <path id="Path_25" data-name="Path 25" d="M36.886,50.628a15.746,15.746,0,0,1,0-22.253l17.8-17.8A15.735,15.735,0,0,1,76.943,32.824l-17.8,17.8A15.733,15.733,0,0,1,36.886,50.628Z" transform="translate(-32.282 -5.967)"/>
      </g>
      <g id="Group_17" data-name="Group 17" transform="translate(42.544 230.175)">
        <path id="Path_26" data-name="Path 26" d="M50.63,36.9a15.72,15.72,0,0,0-22.253,0l-17.8,17.8A15.735,15.735,0,0,0,32.826,76.947l17.8-17.811A15.716,15.716,0,0,0,50.63,36.9Z" transform="translate(-5.967 -32.283)"/>
      </g>
      <g id="Group_18" data-name="Group 18" transform="translate(265.341 145.259)">
        <path id="Path_27" data-name="Path 27" d="M37.215,36.109A15.735,15.735,0,0,1,52.951,20.373H78.127a15.732,15.732,0,1,1,0,31.464H52.951A15.729,15.729,0,0,1,37.215,36.109Z" transform="translate(-37.215 -20.373)"/>
      </g>
      <g id="Group_19" data-name="Group 19" transform="translate(0 145.259)">
        <path id="Path_28" data-name="Path 28" d="M56.64,36.109A15.735,15.735,0,0,0,40.9,20.373H15.736a15.732,15.732,0,1,0,0,31.464H40.912A15.727,15.727,0,0,0,56.64,36.109Z" transform="translate(0 -20.373)"/>
      </g>
      <g id="Group_20" data-name="Group 20" transform="translate(230.166 230.185)">
        <path id="Path_29" data-name="Path 29" d="M36.891,36.888a15.746,15.746,0,0,1,22.253,0l17.8,17.8A15.732,15.732,0,0,1,54.695,76.937l-17.8-17.8A15.724,15.724,0,0,1,36.891,36.888Z" transform="translate(-32.282 -32.284)"/>
      </g>
      <g id="Group_21" data-name="Group 21" transform="translate(42.541 42.548)">
        <path id="Path_30" data-name="Path 30" d="M50.632,50.626a15.733,15.733,0,0,0,0-22.253l-17.8-17.8A15.732,15.732,0,0,0,10.576,32.822l17.8,17.8A15.72,15.72,0,0,0,50.632,50.626Z" transform="translate(-5.967 -5.968)"/>
      </g>
    </g>
  </g>
</svg>
